<svg id="Layer_1" data-name="Layer 1" xmlns="http://www.w3.org/2000/svg" width="144" height="55" viewBox="0 0 144 55"><defs><style>.cls-1{fill:#0d60ad;}.cls-2{fill:#ed2f3d;}.cls-3{fill:none;}</style></defs><title>logo_qoo10_main</title><g id="Layer_2" data-name="Layer 2"><g id="PC-main"><g id="img_logo_qoo10" data-name="img logo qoo10"><path class="cls-1" d="M730.55,393.93a10.52,10.52,0,1,0,10.59,10.55A10.56,10.56,0,0,0,730.55,393.93Zm0,15.85a5.33,5.33,0,1,1,5.37-5.33h0a5.34,5.34,0,0,1-5.38,5.32h0Z" transform="translate(-666 -367)"/><path class="cls-1" d="M753.48,393.93a10.52,10.52,0,1,0,10.59,10.55A10.57,10.57,0,0,0,753.48,393.93Zm0,15.85a5.33,5.33,0,1,1,5.38-5.32,5.35,5.35,0,0,1-5.38,5.32h0Z" transform="translate(-666 -367)"/><path class="cls-1" d="M790.78,389.55A13.14,13.14,0,1,0,804,402.71h0a13.18,13.18,0,0,0-13.21-13.15Zm0,20.83a7.71,7.71,0,1,1,7.76-7.72v0a7.82,7.82,0,0,1-7.78,7.7Z" transform="translate(-666 -367)"/><path class="cls-1" d="M774.91,392.19a3,3,0,0,0-.25-1.25,2.72,2.72,0,0,0-2.74-1.72h-3.65c-2.32,0-3.51,1.24-3.51,3s1.15,3,3.51,3H769v17.44a3,3,0,0,0,6,.36,2.16,2.16,0,0,0,0-.36V392.19Z" transform="translate(-666 -367)"/><path class="cls-2" d="M713.9,408.89a22.38,22.38,0,0,0-4.72-31.47,22.8,22.8,0,0,0-31.73,4.69,22.39,22.39,0,0,0,4.73,31.47,22.82,22.82,0,0,0,25.2,1.19l1.63,1.57c2.24,2.23,4.66,2,6.46.25s2-4.22-.24-6.42Zm-18.08,0a13.54,13.54,0,1,1,13.6-13.58,13.4,13.4,0,0,1-2,7.13l-3.19-3.17c-2.24-2.22-4.67-2-6.47-.24s-2,4.21.23,6.41l2.58,2.56a14.07,14.07,0,0,1-4.73.84Z" transform="translate(-666 -367)"/></g></g></g><rect class="cls-3" width="144" height="55"/></svg>